<svg height="527" viewBox="0 0 1478 527" width="1478" xmlns="http://www.w3.org/2000/svg"><g fill="none" fill-rule="evenodd"><g opacity=".249"><path d="m293.9 447.466h33.728l-3.328 36.159-13.536 3.91-13.539-3.91z" fill="#312f48"/><g fill="#fff"><path d="m324.19 482.87-13.094 3.696-13.051-3.69-3.023-34.53h32.194l-3.026 34.523zm-31.686-36.87 3.389 38.702 15.203 4.298 15.246-4.304 3.392-38.696z"/><path d="m300.414 456.815h19.103l-.686 7.82h-12.153l.207 2.345 11.744-.001-.786 8.9-6.31 1.735-.333.136-.427-.113-6.38-1.754-.326-3.716h-2.31l.482 5.504 8.873 2.508 8.884-2.508 2.035-23.2h-21.824z"/></g></g><g opacity=".249"><path d="m1441.9 153.466h33.728l-3.328 36.159-13.536 3.91-13.539-3.91z" fill="#312f48"/><g fill="#fff"><path d="m1472.19 188.87-13.094 3.696-13.051-3.69-3.023-34.53h32.194l-3.026 34.523zm-31.686-36.87 3.389 38.702 15.203 4.298 15.246-4.304 3.392-38.696z"/><path d="m1448.414 162.815h19.103l-.686 7.82h-12.153l.207 2.345 11.744-.001-.786 8.9-6.31 1.735-.333.136-.427-.113-6.38-1.754-.326-3.716h-2.31l.482 5.504 8.873 2.508 8.884-2.508 2.035-23.2h-21.824z"/></g></g><g opacity=".249"><path d="m913.228 91.481-22.802-24.304 7.277-12.152h31.053l7.759 12.152z" fill="#312f48"/><g fill="#fff"><path d="m933.224 66.328-6.6-10.309h-29.178l-6.182 10.294 20.766 22.074 21.194-22.06zm-22.234 25.24-22.579-24a1.547 1.547 0 0 1 -.192-1.844l7.206-12a1.43 1.43 0 0 1 1.222-.704h30.749c.482 0 .932.251 1.2.668l7.682 12a1.55 1.55 0 0 1 -.18 1.893l-23.06 24a1.402 1.402 0 0 1 -2.048-.011z" fill-rule="nonzero"/><path d="m902.376 63.775 9.062-10.289a1.404 1.404 0 0 1 2.147.026l8.52 10.135 4.219-9.525c.333-.752 1.189-1.081 1.912-.734s1.038 1.238.705 1.99l-4.261 9.622h10.88v3h-12.21l-9.693 21.884c.168.692-.16 1.43-.806 1.734a1.406 1.406 0 0 1 -1.725-.44 1.526 1.526 0 0 1 -.549-1.16l-9.533-22.018h-12.083v-3h10.784l-4.172-9.634c-.327-.755-.003-1.643.722-1.984.726-.34 1.58-.004 1.906.752zm17.036 1.225-6.937-8.252-7.267 8.252zm-15.206 3 7.894 18.233 8.077-18.233z"/></g></g><g opacity=".249"><path d="m1119.286 249-2.857-25 18.571-7 18.095 7.5-2.38 24.5-15.239 9.5z" fill="#141c3a"/><g fill="#fff"><path d="m1149.824 248.808-14.655 8.45-14.655-8.45-2.64-23.69 17.295-6.564 17.296 6.564zm-14.655-32.808-19.787 7.51 2.988 26.803 16.8 9.687 16.799-9.687 2.987-26.803-19.786-7.51z"/><path d="m1130.812 239.25 4.658-11.757 4.66 11.757h-9.317zm-6.246 8.477h2.887l2.393-6.038h11.25l2.392 6.038h2.887l-10.905-25.255z"/></g></g><g opacity=".249"><path d="m539.286 489-2.857-25 18.571-7 18.095 7.5-2.38 24.5-15.239 9.5z" fill="#3b3858"/><g fill="#fff"><path d="m569.824 488.808-14.655 8.45-14.655-8.45-2.64-23.69 17.295-6.564 17.296 6.564zm-14.655-32.808-19.787 7.51 2.988 26.803 16.8 9.687 16.799-9.687 2.987-26.803-19.786-7.51z"/><path d="m550.812 479.25 4.658-11.757 4.66 11.757h-9.317zm-6.246 8.477h2.887l2.393-6.038h11.25l2.392 6.038h2.887l-10.905-25.255z"/></g></g><g opacity=".249"><path d="m993.481 402h38.037v39.5h-38.037z" fill="#141c3a"/><g fill="#fff"><path d="m995.573 439.6h33.483v-35.2h-33.483zm-2.282 2.4h38.048v-40h-38.048z"/><path d="m1022.942 433.848a2.93 2.93 0 0 1 -.925.486c-1.38.42-3.334.25-4.676-1.49a10.318 10.318 0 0 1 -.274-.373l-1.836 1.118a5.75 5.75 0 0 0 1.72 1.815c.864.583 1.842.925 2.99 1.045 1.213.128 2.281.021 3.265-.326 1.118-.394 1.907-1.038 2.41-1.969.383-.708.544-1.513.505-2.532-.053-1.39-.558-2.471-1.544-3.305-.739-.626-1.586-1.079-2.63-1.567-.18-.084-.362-.168-.543-.25a31.238 31.238 0 0 1 -1.44-.691 4.536 4.536 0 0 1 -1.02-.742c-.532-.513-.77-1.4-.592-2.208a2.173 2.173 0 0 1 1.513-1.65c.504-.155 1.05-.16 1.622-.012.646.166 1.188.573 1.653 1.242l1.704-1.15c-.53-.81-1.152-1.364-1.89-1.682-1.154-.499-2.412-.584-3.738-.254-1.186.295-2.043.937-2.62 1.964-.407.725-.575 1.567-.514 2.574.075 1.23.503 2.207 1.31 2.986.725.702 1.622 1.17 2.403 1.535l.45.209c.642.299 1.307.608 1.954.939.348.178.685.428.975.723.472.482.72 1.151.675 1.836a2.374 2.374 0 0 1 -.907 1.73m-18.234 2.15c1.396.63 2.878.687 4.402.168 1.172-.398 1.945-1.216 2.364-2.5.21-.644.304-1.355.304-2.306v-11.966h-2.284v2.08c0 3.28 0 6.56-.003 9.84 0 .382-.025.747-.074 1.085-.047.323-.189 1.308-1.07 1.764-.994.512-1.991.47-2.886-.124-.445-.294-.73-.704-.973-1.102l-.068-.113-1.83 1.165c.538.952 1.234 1.611 2.119 2.01"/></g></g><g opacity=".249" transform="matrix(.8660254 -.5 .5 .8660254 770.581489 492.849269)"><path d="m10.362 31.66c-6.683-1.482-11.124-4.1-11.124-7.086 0-2.946 4.33-5.537 10.872-7.027-2.047-6.508-1.994-11.646.585-13.135 2.62-1.512 7.193 1.113 11.881 6.295 4.689-5.181 9.264-7.807 11.882-6.294 2.556 1.476 2.63 6.536.64 12.962 6.983 1.457 11.664 4.136 11.664 7.2 0 3.101-4.794 5.808-11.915 7.252 2.244 6.795 2.27 12.209-.39 13.744-2.618 1.512-7.192-1.112-11.88-6.294-4.689 5.182-9.263 7.806-11.882 6.294-2.68-1.548-2.632-7.038-.333-13.912z" fill="#141c3a"/><ellipse cx="22.576" cy="24.899" rx="7.364" ry="22.762" stroke="#fff" stroke-width="2" transform="matrix(.8660254 .5 -.5 .8660254 15.47461 -7.952033)"/><ellipse cx="22.521" cy="24.257" fill="#fff" rx="3.833" ry="3.96"/><g stroke="#fff" stroke-width="2"><ellipse cx="22.576" cy="24.899" rx="7.364" ry="22.762" transform="matrix(-.8660254 .5 .5 .8660254 29.6785 -7.95233)"/><ellipse cx="23" cy="24.482" rx="7.364" ry="22.762" transform="matrix(0 1 1 0 -1.482 1.482)"/></g></g><g opacity=".249" transform="matrix(.8660254 -.5 .5 .8660254 352.581785 63.849135)"><path d="m10.362 31.66c-6.683-1.482-11.124-4.1-11.124-7.086 0-2.946 4.33-5.537 10.872-7.027-2.047-6.508-1.994-11.646.585-13.135 2.62-1.512 7.193 1.113 11.881 6.295 4.689-5.181 9.264-7.807 11.882-6.294 2.556 1.476 2.63 6.536.64 12.962 6.983 1.457 11.664 4.136 11.664 7.2 0 3.101-4.794 5.808-11.915 7.252 2.244 6.795 2.27 12.209-.39 13.744-2.618 1.512-7.192-1.112-11.88-6.294-4.689 5.182-9.263 7.806-11.882 6.294-2.68-1.548-2.632-7.038-.333-13.912z" fill="#141c3a"/><ellipse cx="22.576" cy="24.899" rx="7.364" ry="22.762" stroke="#fff" stroke-width="2" transform="matrix(.8660254 .5 -.5 .8660254 15.47461 -7.952033)"/><ellipse cx="22.521" cy="24.257" fill="#fff" rx="3.833" ry="3.96"/><g stroke="#fff" stroke-width="2"><ellipse cx="22.576" cy="24.899" rx="7.364" ry="22.762" transform="matrix(-.8660254 .5 .5 .8660254 29.6785 -7.95233)"/><ellipse cx="23" cy="24.482" rx="7.364" ry="22.762" transform="matrix(0 1 1 0 -1.482 1.482)"/></g></g><g opacity=".249"><path d="m1383.962 426.489h34.636l-2.408 37.136-14.91 3.42-13.95-3.42z" fill="#141c3a"/><g fill="#fff"><path d="m1414.688 462.87-13.094 3.696-13.051-3.69-3.023-34.53h32.194l-3.026 34.523zm-31.686-36.87 3.389 38.702 15.203 4.298 15.246-4.304 3.392-38.696z"/><path d="m1392.267 447.063h16.364l-.73 8.3-6.255 1.744-.355-.095-5.987-1.646-.31-3.526h-2.308l.465 5.315 8.445 2.388 8.456-2.388 1.09-12.435h-16.772l-.636-7.264h18.045l.207-2.343h-20.766z"/></g></g><g opacity=".249"><path d="m1250 349 16-4 15.53 4v32l-15.53 4-16-4z" fill="#3b3858"/><g fill="#fff"><path d="m1259.664 345-9.404 3.407v11.528l9.405 3.407h12.683l9.405-3.407v-11.528l-9.406-3.407zm.372 6.129-5.14-1.862 5.147-1.863 11.933.001 5.14 1.862-5.144 1.863zm12.31 2.405 7.144-2.587v7.268l-.015.006-7.503 2.717-11.936-.002-7.514-2.721v-7.268l.03.01 7.112 2.577h12.683z"/><path d="m1279.49 369.248-.015.006-7.507 2.717-11.932-.001-7.515-2.722v-5.99l-2.262-.82v8.53l9.405 3.407h12.683l9.406-3.406v-8.531l-2.264.82z"/><path d="m1279.49 379.873-.015.005-7.507 2.718-11.932-.001-7.515-2.722v-5.991l-2.262-.82v8.531l9.405 3.407h12.683l9.406-3.407v-8.53l-2.264.819z"/></g></g><g opacity=".249"><path d="m311 260h41.22v35.191h-41.22z" fill="#141c3a"/><g fill="#fff"><path d="m313.367 265.204h36.586v-2.4h-36.586zm0 28.8h36.586v-26.4h-36.586zm-2.24-33.6v36h41.066v-36z"/><path d="m317.1 276.804h2.24v-4.8h-2.24z"/></g></g><g opacity=".249"><path d="m1306.467 214.273h-5.754l-3.802-4.398v-10.261l3.802-4.398h6.231v-6.858l4.3-4.38h10.045l4.289 4.38v6.858h6.21l4.3 3.909v10.261l-3.821 4.398h-6.211v6.841l-4.767 4.398h-10.045l-4.3-4.398v-6.352" fill="#141c3a"/><g fill="#fff"><path d="m1335.078 209.405-3.262 3.344h-15.34v2.433h8.048v5.04l-3.262 3.344h-9.57l-3.262-3.344v-9.81l4.58-4.695h7.92l5.968-6.18v-3.285h4.918l3.262 3.343zm-33.94 3.344-3.262-3.344v-9.81l3.262-3.343h15.339v-2.434h-8.047v-5.04l3.262-3.344h9.57l3.262 3.344v9.758l-4.585 4.747h-7.912l-5.972 6.122v3.344zm31.66-18.931h-5.9v-6.048l-4.653-4.77h-11.537l-4.653 4.77v6.048h-5.9l-4.655 4.77v11.825l4.653 4.77h5.9v6.047l4.656 4.77h11.537l4.653-4.77v-6.048h5.9l4.654-4.77v-11.823l-4.653-4.77z"/><path d="m1311.332 190.978h2.374v-2.704h-2.374zm7.915 29.749h2.375v-2.705h-2.375z"/></g></g><g opacity=".249"><path d="m640.467 53.273h-5.754l-3.802-4.398v-10.261l3.802-4.398h6.231v-6.858l4.3-4.38h10.045l4.289 4.38v6.858h6.21l4.3 3.909v10.261l-3.821 4.398h-6.211v6.841l-4.767 4.398h-10.045l-4.3-4.398v-6.352" fill="#141c3a"/><g fill="#fff"><path d="m669.078 48.405-3.262 3.344h-15.34v2.433h8.048v5.04l-3.262 3.344h-9.57l-3.262-3.344v-9.81l4.58-4.695h7.92l5.968-6.18v-3.285h4.918l3.262 3.343zm-33.94 3.344-3.262-3.344v-9.81l3.262-3.343h15.339v-2.434h-8.047v-5.04l3.262-3.344h9.57l3.262 3.344v9.758l-4.585 4.747h-7.912l-5.972 6.122v3.344zm31.66-18.931h-5.9v-6.048l-4.653-4.77h-11.537l-4.653 4.77v6.048h-5.9l-4.655 4.77v11.825l4.653 4.77h5.9v6.047l4.656 4.77h11.537l4.653-4.77v-6.048h5.9l4.654-4.77v-11.823l-4.653-4.77z"/><path d="m645.332 29.978h2.374v-2.704h-2.374zm7.915 29.749h2.375v-2.705h-2.375z"/></g></g><g opacity=".249"><path d="m165.962 203.489h34.636l-2.408 37.136-14.91 3.42-13.95-3.42z" fill="#141c3a"/><g fill="#fff"><path d="m196.688 239.87-13.094 3.696-13.051-3.69-3.023-34.53h32.194l-3.026 34.523zm-31.686-36.87 3.389 38.702 15.203 4.298 15.246-4.304 3.392-38.696z"/><path d="m174.267 224.063h16.364l-.73 8.3-6.255 1.744-.355-.095-5.987-1.646-.31-3.526h-2.308l.465 5.315 8.445 2.388 8.456-2.388 1.09-12.435h-16.772l-.636-7.264h18.045l.207-2.343h-20.766z"/></g></g><g opacity=".249"><path d="m28 64h41.22v35.191h-41.22z" fill="#141c3a"/><g fill="#fff"><path d="m30.367 69.204h36.586v-2.4h-36.586zm0 28.8h36.586v-26.4h-36.586zm-2.24-33.6v36h41.066v-36z"/><path d="m34.1 80.804h2.24v-4.8h-2.24z"/></g></g><g opacity=".249"><path d="m13.467 482.273h-5.754l-3.802-4.398v-10.261l3.802-4.398h6.231v-6.858l4.3-4.38h10.046l4.289 4.38v6.858h6.21l4.3 3.909v10.261l-3.821 4.398h-6.211v6.841l-4.767 4.398h-10.046l-4.3-4.398v-6.352" fill="#141c3a"/><g fill="#fff"><path d="m42.078 477.405-3.262 3.344h-15.34v2.433h8.048v5.04l-3.262 3.344h-9.57l-3.262-3.344v-9.81l4.58-4.695h7.92l5.968-6.18v-3.285h4.918l3.262 3.343zm-33.94 3.344-3.262-3.344v-9.81l3.262-3.343h15.339v-2.434h-8.047v-5.04l3.262-3.344h9.57l3.262 3.344v9.758l-4.585 4.747h-7.912l-5.972 6.122v3.344zm31.66-18.931h-5.9v-6.048l-4.653-4.77h-11.537l-4.653 4.77v6.048h-5.9l-4.655 4.77v11.825l4.653 4.77h5.9v6.047l4.656 4.77h11.537l4.653-4.77v-6.048h5.9l4.654-4.77v-11.823l-4.653-4.77z"/><path d="m18.332 458.978h2.374v-2.704h-2.374zm7.915 29.749h2.375v-2.705h-2.375z"/></g></g><g opacity=".249"><path d="m151.228 404.481-22.802-24.304 7.277-12.152h31.053l7.759 12.152z" fill="#312f48"/><g fill="#fff"><path d="m171.224 379.328-6.6-10.309h-29.178l-6.182 10.294 20.766 22.074 21.194-22.06zm-22.234 25.24-22.579-24a1.547 1.547 0 0 1 -.192-1.844l7.206-12a1.43 1.43 0 0 1 1.222-.704h30.749c.482 0 .932.251 1.2.668l7.682 12a1.55 1.55 0 0 1 -.18 1.893l-23.06 24a1.402 1.402 0 0 1 -2.048-.011z" fill-rule="nonzero"/><path d="m140.376 376.775 9.062-10.289a1.404 1.404 0 0 1 2.147.026l8.52 10.135 4.219-9.525c.333-.752 1.189-1.081 1.912-.734s1.038 1.238.705 1.99l-4.261 9.622h10.88v3h-12.21l-9.693 21.884c.168.692-.16 1.43-.806 1.734a1.406 1.406 0 0 1 -1.725-.44 1.526 1.526 0 0 1 -.549-1.16l-9.533-22.018h-12.083v-3h10.784l-4.172-9.634c-.327-.755-.003-1.643.722-1.984.726-.34 1.58-.004 1.906.752zm17.036 1.225-6.937-8.252-7.267 8.252zm-15.206 3 7.894 18.233 8.077-18.233z"/></g></g><g fill="#fff"><g opacity=".249"><path d="m1204.826 514.387 1.133-1.963-10.218.228-.042 1.938 5.853-.13-3.187 5.52-12.76.284-1.7 2.944 16.034-.358.419-.725 4.467-7.738zm-32.552 1.055 5.15-8.922 1.695-.038-.036 1.657-4.186 7.251zm9.688-9.406.023-1.04-.002-.001.011-.513-3.437.077h-.001l-3.273.073-7.409 12.832 5.891-.114-.572.991 3.272-.072 7.082-12.266-1.586.033z"/><path d="m1163.241 515.659-8.19.18 5.154-8.928 8.193-.182-5.155 8.93zm30.297-18.235 2.417-4.187-1.832-1.058.002-.005-7.252-4.187-.003.006v-.001l-19.861.44v.01l-.001-.002-1.751 3.033-.001-.002-1.7 2.945 5.676 10.356-11.168.249-1.698 2.94h.002l-2.333 4.042h-.003l-3.39 5.872 14.74-.325 6.29-10.892 1.28-.03 1.134-1.963-1.58.034-5.675-10.354 1.755-3.04 17.47-.39 6.005 3.467-1.798 3.114-11.002.245-1.7 2.945 14.282-.318 1.7-2.945h-.006zm-6.722 10.884 2.3-3.982-3.276.076-1.833 3.174-.181 8.62-2.362.053.054-2.495-1.452 2.515h-.005l-1.123 1.946 7.682-.172zm7.736 9.558.203-9.747 2.292-3.97-3.273.073-1.832 3.173-.183 8.612-2.363.052.054-2.491-1.906 3.302-.674 1.168z"/></g><g opacity=".25"><path d="m1106.459 4.94c-5.101 7.203-8.088 14.786-8.961 22.75-1.266 11.55 5.11 21.32 19.131 29.31-8.02-9.212-10.267-17.84-6.74-25.885 3.527-8.044 8.136-13.449 13.828-16.21z" opacity=".3"/><path d="m1100.259 27.85c.749-6.597 3.049-12.93 6.925-19.026l10.578 6.107c-4.31 3.407-7.89 8.4-10.755 14.914-2.186 4.969-2.48 10.086-.951 15.295-4.627-5.216-6.515-10.965-5.797-17.29zm6.107-22.962c-5.092 7.206-8.09 14.783-8.993 22.73-1.31 11.525 4.972 21.24 18.844 29.144-7.915-9.151-10.104-17.747-6.568-25.785 3.535-8.04 8.134-13.45 13.793-16.231l-17.075-9.859z" fill-rule="nonzero"/><path d="m1094.765 5.327 4.975 2.873 3-5.197-4.975-2.872z"/><path d="m1088.872 20.522 4.714.832.868-4.924-4.714-.832z"/><path d="m1088.95 33.675h3.83v-4h-3.83z"/><path d="m1094.92 44.612 2.487-1.436-1.5-2.598-2.487 1.436z"/><path d="m1102.088 52.81 1.467-1.23-1.286-1.532-1.467 1.23z"/><path d="m1109.875 56.75.5-.865-.866-.5-.5.866z"/></g></g></g></svg>