<svg xmlns="http://www.w3.org/2000/svg" viewBox="0 0 362.55 840.06"><defs><style>.cls-1{fill:#f0f3ff;}.cls-2{fill:#d8dae5;}</style></defs><title>Asset 5</title><g id="Layer_2" data-name="Layer 2"><g id="Layer_1-2" data-name="Layer 1"><path class="cls-1" d="M362.55,628.62V211.85a3,3,0,0,0-1.49-2.58L36.43,21.85a3,3,0,0,0-3.31,4.91L299.21,233.63a3,3,0,0,1,1.14,2.31l5.27,360.21a3,3,0,0,1-1.13,2.37L32.15,814.26a3,3,0,0,0,3.33,4.9l325.58-188A3,3,0,0,0,362.55,628.62Z"/><line class="cls-1" x1="2.65" y1="0.03" x2="2.64" y2="0.03"/><path class="cls-2" d="M0,838.89l.84.61a3,3,0,0,0,3.58-.08h0l304-225.7a3,3,0,0,0,1.2-2.43l-5.27-375.35a3,3,0,0,0-1.14-2.31L3,.24,2.72,0,2.67,0"/></g></g></svg>