<svg width="110" height="54" xmlns="http://www.w3.org/2000/svg" xmlns:xlink="http://www.w3.org/1999/xlink"><defs><path d="M111 4v44.633a4 4 0 0 1-4 4H44.518a4 4 0 0 1-4-4V4a4 4 0 0 1 4-4H107a4 4 0 0 1 4 4z" id="b"/><filter x="-9.9%" y="-9.5%" width="119.9%" height="126.6%" filterUnits="objectBoundingBox" id="a"><feOffset dy="2" in="SourceAlpha" result="shadowOffsetOuter1"/><feGaussianBlur stdDeviation="2" in="shadowOffsetOuter1" result="shadowBlurOuter1"/><feColorMatrix values="0 0 0 0 0 0 0 0 0 0 0 0 0 0 0 0 0 0 0.1 0" in="shadowBlurOuter1"/></filter><path d="M92 11v48.633a2 2 0 0 1-2 2H23.518a2 2 0 0 1-2-2V11a2 2 0 0 1 2-2H90a2 2 0 0 1 2 2z" id="d"/><filter x="-9.9%" y="-9.5%" width="119.9%" height="126.6%" filterUnits="objectBoundingBox" id="c"><feOffset dy="2" in="SourceAlpha" result="shadowOffsetOuter1"/><feGaussianBlur stdDeviation="2" in="shadowOffsetOuter1" result="shadowBlurOuter1"/><feColorMatrix values="0 0 0 0 0 0 0 0 0 0 0 0 0 0 0 0 0 0 0.14 0" in="shadowBlurOuter1"/></filter><path d="M30.584 44.066H11.643a2 2 0 0 1-2-2V4.876a2 2 0 0 1 2-2h18.941a2 2 0 0 1 2 2v37.19a2 2 0 0 1-2 2z" id="f"/><filter x="-30.5%" y="-21.8%" width="161%" height="134%" filterUnits="objectBoundingBox" id="e"><feOffset dy="-2" in="SourceAlpha" result="shadowOffsetOuter1"/><feGaussianBlur stdDeviation="2" in="shadowOffsetOuter1" result="shadowBlurOuter1"/><feColorMatrix values="0 0 0 0 0 0 0 0 0 0 0 0 0 0 0 0 0 0 0.14 0" in="shadowBlurOuter1"/></filter></defs><g fill="none" fill-rule="evenodd"><g transform="translate(2 -14)"><use fill="#000" filter="url(#a)" xlink:href="#b"/><use fill="#3C64C2" xlink:href="#b"/></g><g transform="translate(2 -14)"><use fill="#000" filter="url(#c)" xlink:href="#d"/><use fill="#4C7EF3" xlink:href="#d"/></g><g transform="rotate(90 29.114 17.47)"><use fill="#000" filter="url(#e)" xlink:href="#f"/><use fill="#6F97F5" xlink:href="#f"/></g></g></svg>